<?xml version="1.0" encoding="utf-8"?>
<svg viewBox="0 0 400 400" xmlns="http://www.w3.org/2000/svg">
  <g style="" transform="matrix(1, 0, 0, 1, -51.01870072722322, -48.77353008638013)">
    <title>LOGO</title>
    <path fill="#000000" opacity="1.000000" stroke="none" d="M 304.522 201.04 C 313.712 211.461 319.788 223.268 322.015 236.735 C 326.036 261.048 319.094 282.323 302.528 300.28 C 287.061 317.045 267.363 324.385 244.814 323.082 C 225.124 321.943 208.569 313.53 195.433 298.679 C 183.628 285.332 177.352 269.626 176.207 251.959 C 175.524 241.417 178.14 231.319 182.203 221.657 C 192.951 196.098 212.577 181.347 239.583 177.449 C 264.92 173.793 286.836 181.834 304.522 201.04 M 223.373 219.726 C 219.212 218.87 216.407 216.363 214.564 212.61 C 213.397 210.232 212.221 207.846 210.851 205.583 C 209.066 202.633 207.942 202.564 205.462 204.927 C 201.048 209.134 197.536 214.01 194.45 219.256 C 193.182 221.41 193.722 222.421 195.761 223.414 C 200.909 225.919 206.03 228.484 211.102 231.138 C 219.256 235.403 222.022 244.454 217.732 252.548 C 215.612 256.548 215.797 258.028 218.98 261.295 C 222.532 264.94 226.145 268.525 229.701 272.167 C 231.825 274.343 233.167 276.888 233.621 279.971 C 234.492 285.889 234.059 291.83 234.12 297.76 C 234.152 300.925 234.794 304.195 233.663 307.238 C 232.707 309.806 233.431 310.833 235.972 311.455 C 245.971 313.902 255.871 313.613 265.768 310.883 C 267.765 310.333 268.224 309.108 268.113 307.352 C 267.759 301.779 269.513 296.982 273.087 292.688 C 275.429 289.874 276.27 286.564 275.215 282.865 C 273.766 277.777 272.598 272.607 271.049 267.552 C 267.346 255.457 271.014 246.588 282.318 240.998 C 285.421 239.463 287.214 237.096 287.906 233.748 C 288.656 230.119 289.637 226.534 290.282 222.888 C 291.073 218.412 293.092 214.65 296.503 211.738 C 298.264 210.234 298.087 209.056 296.735 207.52 C 293.775 204.159 290.462 201.205 286.816 198.611 C 285.318 197.545 284.363 197.792 283.709 199.592 C 282.756 202.217 281.387 204.645 279.112 206.347 C 273.087 210.854 267.115 215.444 260.911 219.696 C 254.254 224.258 246.689 222.152 242.901 215.015 C 241.228 211.865 240.533 211.715 238.152 214.344 C 234.302 218.596 229.512 220.255 223.373 219.726 M 292.7 245.851 C 290.634 248.044 288.139 249.568 285.424 250.856 C 281.089 252.914 278.674 257.266 279.658 261.096 C 281.185 267.034 282.565 273.025 284.448 278.851 C 287 286.741 285.405 293.65 280.452 300.017 C 279.348 301.435 278.362 302.876 278.498 304.804 C 279.646 305.337 280.524 304.964 281.342 304.482 C 285.457 302.058 289.474 299.475 292.863 296.075 C 307.963 280.927 314.866 262.74 312.624 241.376 C 311.893 234.402 309.689 227.739 306.4 221.502 C 304.769 218.409 303.62 218.298 301.671 221.004 C 299.941 223.407 299.785 226.345 299.101 229.105 C 297.688 234.801 297.482 240.953 292.7 245.851 M 186.984 242.51 C 185.669 250.815 186.596 258.934 188.921 266.958 C 193.86 283.996 204.179 296.717 219.651 305.283 C 222.858 307.059 224.177 306.296 224.219 302.69 C 224.287 296.653 224.264 290.614 224.17 284.578 C 224.13 281.958 223.177 279.701 221.165 277.824 C 218.38 275.226 215.792 272.416 213.107 269.709 C 205.426 261.962 204.607 257.572 209 247.598 C 210.209 244.852 209.717 241.993 207.212 240.609 C 201.588 237.504 195.799 234.699 190.141 231.804 C 188.156 234.467 187.373 237.161 186.984 242.51 M 266.349 202.966 C 268.238 201.599 270.09 200.175 272.027 198.878 C 274.265 197.378 274.684 195.006 274.676 192.721 C 274.668 190.726 272.435 190.727 271.061 190.22 C 256.861 184.993 242.634 185.268 228.473 190.358 C 224.436 191.809 220.358 193.309 217.145 196.28 C 219.061 199.799 220.864 203.024 222.584 206.294 C 224.757 210.423 227.994 210.818 230.907 207.16 C 232.119 205.638 233.443 204.298 235.154 203.397 C 241.032 200.304 248.099 202.597 251.167 208.561 C 253.287 212.68 253.331 212.682 257.051 209.875 C 260.011 207.641 262.992 205.435 266.349 202.966 Z" style=""/>
    <path fill="#000000" opacity="1.000000" stroke="none" d="M 154.21 307.931 C 159.797 301.945 162.241 295.881 156.721 288.597 C 155.37 286.814 154.638 284.359 154.24 282.104 C 153.643 278.728 151.65 277.737 148.593 277.303 C 143.78 276.621 139.018 275.579 134.237 274.675 C 126.182 273.151 121.463 267.524 121.411 259.315 C 121.37 252.951 121.39 246.586 121.394 240.222 C 121.4 231.825 126.237 226.207 134.461 224.787 C 139.986 223.833 145.462 222.599 150.982 221.617 C 152.645 221.322 153.303 220.317 153.721 218.931 C 155.323 213.636 157.438 208.55 160.077 203.694 C 160.966 202.058 160.689 200.793 159.666 199.325 C 156.395 194.629 153.175 189.894 150.065 185.091 C 145.811 178.522 146.25 172.232 151.624 166.499 C 156.555 161.24 161.679 156.151 166.911 151.191 C 171.686 146.664 178.296 146.177 183.906 149.796 C 188.895 153.014 193.807 156.359 198.624 159.828 C 200.344 161.068 201.732 161.158 203.541 160.191 C 208.411 157.589 213.486 155.445 218.795 153.896 C 220.41 153.425 221.133 152.471 221.429 150.764 C 222.424 145.031 223.557 139.32 224.746 133.623 C 226.292 126.221 231.857 121.721 239.477 121.67 C 246.159 121.626 252.843 121.632 259.525 121.673 C 266.844 121.717 272.303 126.071 273.854 133.238 C 275.06 138.821 276.122 144.438 277.105 150.065 C 277.475 152.186 278.391 153.336 280.528 154.017 C 285.677 155.66 290.704 157.691 295.451 160.299 C 297.125 161.219 298.303 160.949 299.771 159.914 C 304.19 156.798 308.699 153.809 313.193 150.799 C 320.831 145.683 327.167 146.312 333.689 152.861 C 338.105 157.295 342.482 161.768 346.856 166.243 C 352.339 171.852 353.152 177.999 348.963 184.728 C 345.828 189.765 342.402 194.626 338.953 199.458 C 337.859 200.991 337.829 202.151 338.718 203.755 C 341.345 208.495 343.43 213.493 344.971 218.687 C 345.533 220.578 346.521 221.44 348.456 221.776 C 353.566 222.664 358.63 223.814 363.733 224.744 C 372.048 226.257 376.301 230.148 377.204 238.429 C 378.054 246.217 378.076 254.119 377.147 261.907 C 376.276 269.21 371.493 273.738 364.187 274.692 C 358.923 275.379 353.815 276.786 348.589 277.613 C 346.74 277.905 345.655 278.852 345.053 280.74 C 343.412 285.891 341.584 290.992 338.776 295.651 C 337.799 297.271 338.056 298.533 339.073 300.004 C 342.39 304.801 345.668 309.628 348.844 314.52 C 353.121 321.108 352.36 327.679 346.796 333.246 C 342.073 337.972 337.35 342.698 332.597 347.396 C 327.412 352.523 320.453 353.301 314.311 349.316 C 309.598 346.258 304.964 343.073 300.374 339.831 C 298.53 338.529 296.957 338.233 294.856 339.416 C 290.512 341.861 285.828 343.599 281.101 345.16 C 278.764 345.932 277.447 347.179 277.039 349.776 C 276.217 354.997 275.068 360.167 274.004 365.348 C 272.502 372.67 268.608 376.88 261.317 377.594 C 253.63 378.348 245.809 378.406 238.132 377.575 C 229.338 376.622 225.331 371.601 223.951 361.869 C 223.284 357.164 222.169 352.523 221.34 347.838 C 221.085 346.401 220.075 345.96 218.953 345.613 C 213.569 343.947 208.41 341.745 203.428 339.13 C 201.833 338.292 200.508 338.418 199.018 339.477 C 194.697 342.547 190.275 345.473 185.914 348.488 C 178.786 353.416 172.099 353.031 165.769 347.006 C 160.857 342.329 156.081 337.5 151.397 332.593 C 146.584 327.553 145.962 321.045 149.553 315.042 C 150.967 312.677 152.565 310.423 154.21 307.931 M 167.197 334.37 C 168.618 335.798 170.035 337.231 171.463 338.653 C 175.461 342.64 176.349 342.724 180.932 339.589 C 186.272 335.938 191.631 332.317 196.945 328.629 C 199.04 327.175 201.217 326.672 203.505 327.912 C 210.895 331.914 218.554 335.225 226.678 337.445 C 228.956 338.068 230.078 339.825 230.496 342.09 C 231.804 349.169 233.155 356.241 234.434 363.324 C 234.975 366.321 236.734 367.727 239.716 367.71 C 245.973 367.675 252.23 367.642 258.488 367.584 C 262.566 367.547 263.749 366.555 264.514 362.597 C 265.801 355.943 267.215 349.308 268.298 342.621 C 268.792 339.567 270.315 337.758 273.141 337.04 C 280.602 335.145 287.538 332.015 294.229 328.288 C 297.053 326.716 299.577 327.036 302.213 328.916 C 307.737 332.858 313.431 336.56 318.974 340.476 C 321.614 342.341 323.782 342.08 325.999 339.813 C 330.521 335.187 335.104 330.619 339.71 326.074 C 341.781 324.032 341.991 322.007 340.303 319.588 C 336.602 314.285 333.202 308.76 329.315 303.601 C 326.624 300.03 326.518 296.842 328.741 293.089 C 332.214 287.228 334.797 280.938 336.446 274.326 C 337.366 270.638 339.529 268.798 343.194 268.182 C 349.563 267.113 355.903 265.867 362.248 264.663 C 366.393 263.876 367.287 262.897 367.334 258.762 C 367.404 252.716 367.405 246.669 367.344 240.623 C 367.302 236.604 366.533 235.595 362.531 234.772 C 356.005 233.429 349.457 232.175 342.887 231.073 C 339.281 230.468 337.259 228.554 336.414 225.048 C 334.74 218.1 331.923 211.587 328.353 205.422 C 326.535 202.281 326.686 199.52 328.773 196.573 C 332.692 191.034 336.408 185.352 340.293 179.788 C 341.877 177.519 341.883 175.543 339.9 173.549 C 335.265 168.889 330.667 164.191 326.042 159.52 C 323.836 157.292 321.646 157.178 318.993 159.071 C 313.3 163.134 307.402 166.908 301.658 170.901 C 299.277 172.556 296.909 172.701 294.516 171.273 C 287.636 167.169 280.307 164.189 272.572 162.149 C 270.493 161.601 268.931 160.376 268.507 158.138 C 267.184 151.172 265.831 144.212 264.63 137.225 C 263.957 133.308 262.254 131.62 258.292 131.605 C 252.352 131.582 246.411 131.58 240.471 131.633 C 236.694 131.666 235.214 132.849 234.499 136.432 C 233.152 143.181 231.759 149.926 230.63 156.713 C 230.105 159.875 228.47 161.734 225.517 162.455 C 218.247 164.229 211.47 167.158 205.034 170.927 C 201.946 172.735 199.145 172.472 196.199 170.343 C 190.7 166.368 185.017 162.649 179.435 158.788 C 177.195 157.239 175.152 157.214 173.165 159.213 C 168.529 163.877 163.875 168.525 159.214 173.163 C 157.088 175.278 156.84 177.477 158.584 179.991 C 162.33 185.393 165.829 190.976 169.76 196.238 C 172.206 199.513 172.367 202.465 170.343 205.878 C 166.812 211.838 164.091 218.181 162.452 224.91 C 161.405 229.212 158.635 230.835 154.58 231.496 C 148.22 232.534 141.92 233.931 135.577 235.078 C 132.527 235.63 131.282 237.382 131.308 240.384 C 131.363 246.642 131.351 252.901 131.316 259.16 C 131.299 262.15 132.534 263.856 135.626 264.404 C 141.982 265.53 148.276 267.023 154.646 268.058 C 158.884 268.746 161.526 270.604 162.577 274.982 C 164.193 281.716 167.074 288.005 170.538 293.981 C 172.377 297.154 172.176 299.84 170.063 302.786 C 166.172 308.214 162.54 313.827 158.709 319.3 C 156.789 322.041 157.066 324.33 159.471 326.609 C 162.011 329.015 164.411 331.568 167.197 334.37 Z" style=""/>
    <g transform="matrix(-1, 0, 0, -1, -32.480611, 164.907032)" style="transform-origin: 267.259px 166.32px;">
      <path d="M 413.067 231.454 H 425.779 L 413.067 200.979 L 453.067 233.475 L 413.067 265.97 L 425.779 235.495 H 413.067 V 231.454 Z" style="stroke: rgb(0, 0, 0); transform-box: fill-box; transform-origin: 42.7894% 65.0788%;" transform="matrix(0.135725, 0.990747, -0.990747, 0.135722, -27.765624, -17.662761)"/>
      <path d="M 87.09 233.404 C 87.115 191.434 105.356 153.333 134.805 125.832 C 164.255 98.333 205.055 81.276 250 81.276 C 294.945 81.276 335.746 98.333 365.196 125.832 C 379.922 139.585 391.871 156.004 400.108 174.189 C 404.225 183.28 407.433 192.85 409.602 202.745 C 410.685 207.692 411.514 212.74 412.07 217.849 C 412.347 220.405 412.559 222.985 412.699 225.575 C 412.769 226.871 412.823 228.174 412.857 229.478 C 412.875 230.129 412.888 230.783 412.898 231.437 C 412.906 232.091 412.911 233.397 412.911 233.397 C 412.911 233.398 411.75 233.406 411.75 233.407 C 411.75 233.407 411.749 232.753 411.748 232.427 C 411.746 232.101 411.743 231.776 411.738 231.451 C 411.73 230.801 411.716 230.153 411.698 229.505 C 411.663 228.209 411.611 226.919 411.54 225.631 C 411.401 223.054 411.192 220.501 410.917 217.959 C 410.363 212.878 409.544 207.883 408.466 202.962 C 406.309 193.121 403.136 183.654 399.041 174.61 C 390.848 156.523 379.024 140.279 364.376 126.599 C 335.072 99.236 294.709 82.359 250 82.359 C 205.292 82.359 164.929 99.236 135.625 126.599 C 106.323 153.963 88.224 191.654 88.249 233.404 L 87.09 233.404 Z" style="paint-order: fill; stroke: rgb(0, 0, 0); stroke-linejoin: round; stroke-width: 8px; stroke-linecap: round;"/>
    </g>
    <g>
      <path d="M 413.067 231.454 H 425.779 L 413.067 200.979 L 453.067 233.475 L 413.067 265.97 L 425.779 235.495 H 413.067 V 231.454 Z" style="stroke: rgb(0, 0, 0); transform-box: fill-box; transform-origin: 42.7894% 65.0788%;" transform="matrix(0.135725, 0.990747, -0.990747, 0.135722, -27.765624, -17.662761)"/>
      <path d="M 87.09 233.404 C 87.115 191.434 105.356 153.333 134.805 125.832 C 164.255 98.333 205.055 81.276 250 81.276 C 294.945 81.276 335.746 98.333 365.196 125.832 C 379.922 139.585 391.871 156.004 400.108 174.189 C 404.225 183.28 407.433 192.85 409.602 202.745 C 410.685 207.692 411.514 212.74 412.07 217.849 C 412.347 220.405 412.559 222.985 412.699 225.575 C 412.769 226.871 412.823 228.174 412.857 229.478 C 412.875 230.129 412.888 230.783 412.898 231.437 C 412.906 232.091 412.911 233.397 412.911 233.397 C 412.911 233.398 411.75 233.406 411.75 233.407 C 411.75 233.407 411.749 232.753 411.748 232.427 C 411.746 232.101 411.743 231.776 411.738 231.451 C 411.73 230.801 411.716 230.153 411.698 229.505 C 411.663 228.209 411.611 226.919 411.54 225.631 C 411.401 223.054 411.192 220.501 410.917 217.959 C 410.363 212.878 409.544 207.883 408.466 202.962 C 406.309 193.121 403.136 183.654 399.041 174.61 C 390.848 156.523 379.024 140.279 364.376 126.599 C 335.072 99.236 294.709 82.359 250 82.359 C 205.292 82.359 164.929 99.236 135.625 126.599 C 106.323 153.963 88.224 191.654 88.249 233.404 L 87.09 233.404 Z" style="paint-order: fill; stroke: rgb(0, 0, 0); stroke-linejoin: round; stroke-width: 8px; stroke-linecap: round;"/>
    </g>
  </g>
</svg>